<?xml version="1.0" encoding="UTF-8"?>
<svg version="1.1" xmlns="http://www.w3.org/2000/svg" width="500" height="500">
<path d="M0 0 C165 0 330 0 500 0 C500 165 500 330 500 500 C335 500 170 500 0 500 C0 335 0 170 0 0 Z " fill="#FEFEFE" transform="translate(0,0)"/>
<path d="M0 0 C5.96876486 5.05221295 9.4054479 10.92401141 10.3125 18.66796875 C10.71731479 27.83955382 7.67405767 33.06239167 2 40 C3.04414063 40.12375 4.08828125 40.2475 5.1640625 40.375 C36.30443996 44.54930371 64.13550982 59.74639867 83.27661133 84.7956543 C98.40070176 105.21361509 105.06345388 128.85193594 101.30859375 154.12890625 C98.68740529 169.41142302 93.87450032 184.85528366 83.47167969 196.74707031 C78.97503765 202.08800164 78.16813501 205.99048168 78.25 212.875 C78.21456211 214.64333476 78.17425496 216.41157914 78.12890625 218.1796875 C78.11230957 219.01467773 78.09571289 219.84966797 78.07861328 220.70996094 C77.90040601 225.90121615 77.63663474 230.93817768 74.34228516 235.08837891 C71.30482072 237.5673602 69.61635214 237.48976998 65.73046875 237.4609375 C64.51166016 237.45707031 63.29285156 237.45320312 62.03710938 237.44921875 C60.76673828 237.42472656 59.49636719 237.40023437 58.1875 237.375 C56.92873047 237.37371094 55.66996094 237.37242187 54.37304688 237.37109375 C41.54852287 237.24940612 41.54852287 237.24940612 37 235 C35.30790112 232.56481008 34.20374858 230.66202246 33.0625 228 C32.76021484 227.35804688 32.45792969 226.71609375 32.14648438 226.0546875 C30 221.4015377 30 221.4015377 30 219 C27.74774934 219.2288383 25.49815183 219.48389223 23.25 219.75 C21.99703125 219.88921875 20.7440625 220.0284375 19.453125 220.171875 C15.58835039 221.0987214 14.27382833 221.7787432 12 225 C11.02333091 228.08316665 11.02333091 228.08316665 10.5 231.4375 C9.62727565 236.39250734 8.60299458 239.40334872 5 243 C-0.27915169 245.54210177 -5.18466143 245.36743545 -10.9375 245.375 C-11.91396484 245.39949219 -12.89042969 245.42398438 -13.89648438 245.44921875 C-19.75678299 245.47305725 -23.45824998 245.09918332 -28 241 C-29.35546875 239.17578125 -29.35546875 239.17578125 -30.1875 237.3125 C-30.49945313 236.62671875 -30.81140625 235.9409375 -31.1328125 235.234375 C-32.33501864 232.13679883 -33.30714294 228.98717805 -34.19140625 225.78515625 C-34.45824219 225.19605469 -34.72507812 224.60695313 -35 224 C-37.75078884 223.08307039 -39.35948913 222.89113917 -42.1875 222.9375 C-44.0746875 222.9684375 -44.0746875 222.9684375 -46 223 C-46.36351562 223.83144531 -46.72703125 224.66289062 -47.1015625 225.51953125 C-47.60429687 226.60621094 -48.10703125 227.69289063 -48.625 228.8125 C-49.11226563 229.89144531 -49.59953125 230.97039062 -50.1015625 232.08203125 C-52.51531404 235.79205676 -53.76288627 236.65349856 -58 238 C-62.34063203 238.4674007 -66.63727098 238.50967346 -71 238.5 C-72.16273438 238.52835938 -73.32546875 238.55671875 -74.5234375 238.5859375 C-84.03574395 238.60770479 -84.03574395 238.60770479 -87.75 235.59375 C-90.72768463 232.16114133 -91.11896032 230.63270458 -91.17578125 226.203125 C-91.21155273 224.76453125 -91.21155273 224.76453125 -91.24804688 223.296875 C-91.29068068 221.28145865 -91.32211161 219.26577112 -91.34179688 217.25 C-91.51136955 211.3504485 -91.94491139 207.60870887 -96 203 C-97.8791934 201.23522878 -97.8791934 201.23522878 -99.9375 199.6875 C-106.53436759 194.03770746 -111.35776672 186.91861539 -116.50341797 179.98242188 C-119.0207534 176.64787641 -121.70635327 173.45410904 -124.4140625 170.2734375 C-129.7385268 162.64083104 -130.40837214 153.98833731 -129 145 C-127.48619767 140.66547933 -125.37689198 136.91488092 -123 133 C-119.8287761 127.25913938 -117.60417508 122.20024906 -116.52734375 115.71875 C-115.32537369 109.52192658 -113.45875517 103.16223571 -110.8125 97.42578125 C-109.06867344 92.21945293 -111.91948684 87.49792229 -113.9375 82.6875 C-118.35263268 71.78167789 -122.00611632 59.63488985 -118 47.875 C-115.02633751 43.60036018 -111.14411894 41.1039351 -106.2421875 39.3828125 C-91.92792857 36.93891463 -77.74284248 39.79083214 -64.8515625 46.109375 C-59.06971628 47.9152119 -53.28848411 45.63569003 -47.625 44.0625 C-42.11059636 42.550056 -36.59582865 41.17806919 -31 40 C-31.78375 38.948125 -32.5675 37.89625 -33.375 36.8125 C-38.81911469 29.50592503 -38.90567188 21.78595087 -38 13 C-35.37054706 5.540479 -28.81090843 0.58468865 -22 -3 C-14.51030711 -5.84091799 -6.68007892 -3.87314022 0 0 Z " fill="#FDFDFD" transform="translate(264,114)"/>
<path d="M0 0 C5.96876486 5.05221295 9.4054479 10.92401141 10.3125 18.66796875 C10.71731479 27.83955382 7.67405767 33.06239167 2 40 C3.04414063 40.12375 4.08828125 40.2475 5.1640625 40.375 C36.30443996 44.54930371 64.13550982 59.74639867 83.27661133 84.7956543 C98.40070176 105.21361509 105.06345388 128.85193594 101.30859375 154.12890625 C98.68740529 169.41142302 93.87450032 184.85528366 83.47167969 196.74707031 C78.97503765 202.08800164 78.16813501 205.99048168 78.25 212.875 C78.21456211 214.64333476 78.17425496 216.41157914 78.12890625 218.1796875 C78.11230957 219.01467773 78.09571289 219.84966797 78.07861328 220.70996094 C77.90040601 225.90121615 77.63663474 230.93817768 74.34228516 235.08837891 C71.30482072 237.5673602 69.61635214 237.48976998 65.73046875 237.4609375 C64.51166016 237.45707031 63.29285156 237.45320312 62.03710938 237.44921875 C60.76673828 237.42472656 59.49636719 237.40023437 58.1875 237.375 C56.92873047 237.37371094 55.66996094 237.37242187 54.37304688 237.37109375 C41.54852287 237.24940612 41.54852287 237.24940612 37 235 C35.30790112 232.56481008 34.20374858 230.66202246 33.0625 228 C32.76021484 227.35804688 32.45792969 226.71609375 32.14648438 226.0546875 C30 221.4015377 30 221.4015377 30 219 C27.74774934 219.2288383 25.49815183 219.48389223 23.25 219.75 C21.99703125 219.88921875 20.7440625 220.0284375 19.453125 220.171875 C15.58835039 221.0987214 14.27382833 221.7787432 12 225 C11.02333091 228.08316665 11.02333091 228.08316665 10.5 231.4375 C9.62727565 236.39250734 8.60299458 239.40334872 5 243 C-0.27915169 245.54210177 -5.18466143 245.36743545 -10.9375 245.375 C-11.91396484 245.39949219 -12.89042969 245.42398438 -13.89648438 245.44921875 C-19.75678299 245.47305725 -23.45824998 245.09918332 -28 241 C-29.35546875 239.17578125 -29.35546875 239.17578125 -30.1875 237.3125 C-30.49945313 236.62671875 -30.81140625 235.9409375 -31.1328125 235.234375 C-32.33501864 232.13679883 -33.30714294 228.98717805 -34.19140625 225.78515625 C-34.45824219 225.19605469 -34.72507812 224.60695313 -35 224 C-37.75078884 223.08307039 -39.35948913 222.89113917 -42.1875 222.9375 C-44.0746875 222.9684375 -44.0746875 222.9684375 -46 223 C-46.36351562 223.83144531 -46.72703125 224.66289062 -47.1015625 225.51953125 C-47.60429687 226.60621094 -48.10703125 227.69289063 -48.625 228.8125 C-49.11226563 229.89144531 -49.59953125 230.97039062 -50.1015625 232.08203125 C-52.51531404 235.79205676 -53.76288627 236.65349856 -58 238 C-62.34063203 238.4674007 -66.63727098 238.50967346 -71 238.5 C-72.16273438 238.52835938 -73.32546875 238.55671875 -74.5234375 238.5859375 C-84.03574395 238.60770479 -84.03574395 238.60770479 -87.75 235.59375 C-90.72768463 232.16114133 -91.11896032 230.63270458 -91.17578125 226.203125 C-91.21155273 224.76453125 -91.21155273 224.76453125 -91.24804688 223.296875 C-91.29068068 221.28145865 -91.32211161 219.26577112 -91.34179688 217.25 C-91.51136955 211.3504485 -91.94491139 207.60870887 -96 203 C-97.8791934 201.23522878 -97.8791934 201.23522878 -99.9375 199.6875 C-106.53436759 194.03770746 -111.35776672 186.91861539 -116.50341797 179.98242188 C-119.0207534 176.64787641 -121.70635327 173.45410904 -124.4140625 170.2734375 C-129.7385268 162.64083104 -130.40837214 153.98833731 -129 145 C-127.48619767 140.66547933 -125.37689198 136.91488092 -123 133 C-119.8287761 127.25913938 -117.60417508 122.20024906 -116.52734375 115.71875 C-115.32537369 109.52192658 -113.45875517 103.16223571 -110.8125 97.42578125 C-109.06867344 92.21945293 -111.91948684 87.49792229 -113.9375 82.6875 C-118.35263268 71.78167789 -122.00611632 59.63488985 -118 47.875 C-115.02633751 43.60036018 -111.14411894 41.1039351 -106.2421875 39.3828125 C-91.92792857 36.93891463 -77.74284248 39.79083214 -64.8515625 46.109375 C-59.06971628 47.9152119 -53.28848411 45.63569003 -47.625 44.0625 C-42.11059636 42.550056 -36.59582865 41.17806919 -31 40 C-31.78375 38.948125 -32.5675 37.89625 -33.375 36.8125 C-38.81911469 29.50592503 -38.90567188 21.78595087 -38 13 C-35.37054706 5.540479 -28.81090843 0.58468865 -22 -3 C-14.51030711 -5.84091799 -6.68007892 -3.87314022 0 0 Z M-49 51 C-50.23363281 51.36222656 -51.46726563 51.72445312 -52.73828125 52.09765625 C-74.70838415 59.18091347 -91.67749893 73.87928343 -102.32421875 94.31640625 C-110.13642565 109.95256728 -110.13642565 109.95256728 -112 127 C-110.86691406 126.7834375 -110.86691406 126.7834375 -109.7109375 126.5625 C-94.24855937 123.9552606 -76.43947131 121.88336521 -62.6328125 130.47265625 C-55.03217116 135.88523417 -47.51826227 143.87129927 -45 153 C-44.14951308 160.66514792 -44.55806743 167.51178389 -49 174 C-54.96131832 180.64713371 -62.11203612 184.95727798 -71 186 C-74.93833847 186.16515133 -78.87108542 186.18508935 -82.8125 186.1875 C-83.85470703 186.19974609 -84.89691406 186.21199219 -85.97070312 186.22460938 C-92.30334858 186.23653526 -97.87468797 185.61933537 -104 184 C-101.59844088 192.80571676 -93.36229017 197.37287136 -85.96850586 201.72021484 C-67.7354548 212.09130811 -49.52626882 214.64123561 -29 217 C-27.02 223.6 -25.04 230.2 -23 237 C-13.63266913 238.33819012 -6.19909698 238.15093708 3 236 C5.58774192 225.03350149 7.74410013 214.20394888 9 203 C9.99 202.67 10.98 202.34 12 202 C12.33 205.96 12.66 209.92 13 214 C18.10686961 214 21.6713168 213.42987396 26.375 211.875 C27.06110352 211.65561768 27.74720703 211.43623535 28.45410156 211.21020508 C34.30363663 209.30757663 40.05897798 207.16159021 45.77099609 204.88037109 C49.1299673 203.56629117 51.32564303 203 55 203 C48.73 206.96 42.46 210.92 36 215 C36.83282712 219.16413559 37.66079038 221.65536612 39.5625 225.3125 C40.01753906 226.19550781 40.47257813 227.07851563 40.94140625 227.98828125 C41.29074219 228.65214844 41.64007813 229.31601562 42 230 C46.08331839 230.02903892 50.1666102 230.04681189 54.25 230.0625 C55.40886719 230.07087891 56.56773437 230.07925781 57.76171875 230.08789062 C58.87675781 230.09111328 59.99179687 230.09433594 61.140625 230.09765625 C62.16704102 230.10289307 63.19345703 230.10812988 64.25097656 230.11352539 C66.67625656 230.01336951 68.68697361 229.69923078 71 229 C70.98839844 228.38705078 70.97679687 227.77410156 70.96484375 227.14257812 C70.81325557 212.6659074 72.28387379 202.27122728 80 190 C88.81268575 175.56856927 95.20534426 160.86332745 95.125 143.75 C95.12886719 142.94175781 95.13273438 142.13351562 95.13671875 141.30078125 C95.12228472 132.27951233 94.20541051 124.40564405 91 115.9375 C90.69239746 115.11822021 90.38479492 114.29894043 90.06787109 113.45483398 C78.9385906 84.83470764 59.70821449 66.62064479 32 54 C24.26437444 50.72265889 24.26437444 50.72265889 16 50 C16.33 50.99 16.66 51.98 17 53 C13.76984094 54.07671969 10.94939427 54.37100323 7.55859375 54.68359375 C6.25994385 54.80565186 4.96129395 54.92770996 3.62329102 55.0534668 C2.93872833 55.11625824 2.25416565 55.17904968 1.54885864 55.2437439 C-1.97071312 55.56672953 -5.48922944 55.90081777 -9.0078125 56.234375 C-9.69940964 56.29968918 -10.39100677 56.36500336 -11.1035614 56.43229675 C-19.08031658 57.18981327 -27.04152867 58.07205753 -35 59 C-34.67 57.35 -34.34 55.7 -34 54 C-28.17925808 52.40646355 -22.56665264 51.4840833 -16.5625 50.9375 C-15.70301758 50.85516113 -14.84353516 50.77282227 -13.95800781 50.68798828 C-5.65048722 49.91707724 2.6677615 49.41013609 11 49 C7.28220699 46.52147133 4.36958843 46.67781354 0.0625 46.6640625 C-0.72584229 46.65572891 -1.51418457 46.64739532 -2.32641602 46.6388092 C-4.88447255 46.61932484 -7.44188103 46.61936235 -10 46.625 C-10.86625 46.62521149 -11.7325 46.62542297 -12.625 46.62564087 C-25.18637706 46.65645433 -36.94243305 47.18905915 -49 51 Z " fill="#0C0D64" transform="translate(264,114)"/>
<path d="M0 0 C2.4213264 2.11926958 4.2150216 4.33435345 6 7 C7.175625 8.546875 7.175625 8.546875 8.375 10.125 C11.16803329 15.30032639 10.7037158 21.32629137 10 27 C7.30477528 33.17655664 1.82297238 37.14074021 -4.14453125 40.04296875 C-17.06729216 44.73214775 -34.0231283 42.98008577 -46.25 37.3125 C-53.08081081 33.67531502 -58.61156608 29.58548922 -61 22 C-61.83917333 14.37913523 -61.83125128 7.24214767 -57 1 C-42.57291731 -14.99762587 -16.33844954 -10.49100444 0 0 Z " fill="#FBFBFC" transform="translate(203,252)"/>
<path d="M0 0 C95.04 0 190.08 0 288 0 C288 1.32 288 2.64 288 4 C192.96 4 97.92 4 0 4 C0 2.68 0 1.36 0 0 Z " fill="#0096C7" transform="translate(138,409)"/>
<path d="M0 0 C95.04 0 190.08 0 288 0 C288 1.32 288 2.64 288 4 C192.96 4 97.92 4 0 4 C0 2.68 0 1.36 0 0 Z " fill="#0077B6" transform="translate(122,393)"/>
<path d="M0 0 C95.04 0 190.08 0 288 0 C288 1.32 288 2.64 288 4 C192.96 4 97.92 4 0 4 C0 2.68 0 1.36 0 0 Z " fill="#023E8A" transform="translate(106,377)"/>
<path d="M0 0 C6.154246 6.297368 7.25891961 12.04679764 7.16455078 20.73876953 C6.83448167 28.70331842 4.51430044 36.09457604 -1.3125 41.75 C-4.58574384 43.68722595 -6.4976331 44.75 -10.3125 44.75 C-9.68089513 41.51477952 -9.02720597 40.36710537 -6.9375 37.5625 C-1.03579878 29.45407571 -0.23818955 20.59985757 -1.3125 10.75 C-2.52071231 7.03662431 -4.52838376 5.25722519 -7.8125 3.1328125 C-12.52134822 1.27239702 -16.67090938 1.27363909 -21.6875 1.3125 C-22.595 1.29251953 -23.5025 1.27253906 -24.4375 1.25195312 C-31.73771598 1.25721265 -37.20230698 2.73338801 -42.51953125 7.890625 C-43.04933594 8.58671875 -43.57914063 9.2828125 -44.125 10 C-45.76953125 12.140625 -45.76953125 12.140625 -47.3125 13.75 C-48.3025 13.75 -49.2925 13.75 -50.3125 13.75 C-50.83454958 10.69228104 -50.88298755 8.59188454 -49.10546875 5.96875 C-36.4775489 -7.51680375 -15.12617924 -11.1000569 0 0 Z " fill="#101166" transform="translate(295.3125,181.25)"/>
<path d="M0 0 C2.70552388 2.19823815 4.44778333 3.89556667 6 7 C6.46646764 13.06407926 5.39891701 17.10130861 1.5 21.8125 C-1.97892741 24.56665087 -5.76947648 24.3647003 -10 24 C-13.54829258 21.79217351 -15.39810568 19.81236859 -17 16 C-17.77029703 11.99297411 -17.87813383 8.45188384 -15.7265625 4.89453125 C-10.86434934 -0.85711114 -7.37497466 -1.89787776 0 0 Z " fill="#090A62" transform="translate(238,227)"/>
<path d="M0 0 C0 0.66 0 1.32 0 2 C-2.36786839 4.29131106 -5.06183047 6.20168032 -7.6875 8.1875 C-8.7693457 9.04504883 -8.7693457 9.04504883 -9.87304688 9.91992188 C-15.21092293 13.97085795 -15.21092293 13.97085795 -18.75 14.1015625 C-21.42191925 12.79343536 -23.19326001 11.27574562 -25.3125 9.1875 C-30.53673877 4.33704204 -35.79797016 0.90025373 -43 0 C-43 -0.66 -43 -1.32 -43 -2 C-28.41250299 -8.02137469 -14.21421527 -5.35663563 0 0 Z " fill="#F9F9FB" transform="translate(195,165)"/>
<path d="M0 0 C0.55977539 0.1868335 1.11955078 0.37366699 1.69628906 0.56616211 C5.45748584 1.82081817 9.21917377 3.07381308 12.984375 4.31640625 C14.22703125 4.72761719 15.4696875 5.13882812 16.75 5.5625 C18.00296875 5.97628906 19.2559375 6.39007813 20.546875 6.81640625 C23.40770322 7.79698425 26.20689796 8.84331461 29 10 C28.79839367 11.46239815 28.56262996 12.92011565 28.3125 14.375 C28.12107422 15.59316406 28.12107422 15.59316406 27.92578125 16.8359375 C27 19 27 19 24.77734375 20.27734375 C17.18904478 22.25179566 8.67680881 21.13264392 1 20 C0 19 0 19 -0.11352539 17.14233398 C-0.10828857 16.35157471 -0.10305176 15.56081543 -0.09765625 14.74609375 C-0.09443359 13.89208984 -0.09121094 13.03808594 -0.08789062 12.15820312 C-0.07951172 11.26037109 -0.07113281 10.36253906 -0.0625 9.4375 C-0.05798828 8.53580078 -0.05347656 7.63410156 -0.04882812 6.70507812 C-0.03700225 4.46998686 -0.0205222 2.23502563 0 0 Z " fill="#F7F7FA" transform="translate(180,325)"/>
<path d="M0 0 C3.64331077 1.61924923 6.20425519 3.40851039 8 7 C8.71415427 11.64200273 8.64367295 14.93461028 6.1875 19 C2.3712509 22.48914203 -1.60615219 22.38493656 -6.55078125 22.36328125 C-10.24702303 21.81503486 -11.81029454 19.89606205 -14 17 C-14.33 16.67 -14.66 16.34 -15 16 C-15.41028813 10.7688264 -14.82593716 7.4407584 -12 3 C-8.67700204 -0.69221996 -4.68896253 -0.69120165 0 0 Z " fill="#FAFAFC" transform="translate(253,123)"/>
<path d="M0 0 C4.581076 2.3456713 8.00623484 5.61100729 10.09765625 10.3515625 C11.12425035 15.96361025 10.34042576 20.59550055 7.09765625 25.3515625 C3.18568747 29.2955966 -0.43220288 31.45816707 -6.02734375 31.7890625 C-11.82200018 31.73225214 -15.62643237 29.06089349 -19.90234375 25.3515625 C-22.82547815 21.98552895 -23.49833054 18.95701543 -23.3203125 14.47265625 C-22.29627924 9.27592672 -19.07050396 5.43628269 -15.27734375 1.9140625 C-10.63109945 -1.14267717 -5.26885705 -1.79595538 0 0 Z M-15.90234375 8.3515625 C-18.14815045 12.30846002 -18.38392761 15.85677985 -17.90234375 20.3515625 C-16.1067197 23.10485271 -14.84979453 24.87783711 -11.90234375 26.3515625 C-7.2817167 26.77682375 -3.18943818 26.91466631 1.09765625 25.0390625 C3.43996288 23.06274128 4.91273542 21.37349338 5.46875 18.30078125 C5.59265523 14.08071482 5.49653029 11.22444648 2.78515625 7.8515625 C-0.93528748 4.39068461 -3.86839857 3.99628389 -8.90234375 4.0703125 C-12.14614898 4.52647261 -13.72899625 5.98644904 -15.90234375 8.3515625 Z " fill="#121368" transform="translate(255.90234375,118.6484375)"/>
<path d="M0 0 C4.55910286 1.57163724 7.21941962 4.1803906 10.5 7.625 C13.1891036 13.67548311 12.87357691 20.12069766 10.8125 26.375 C8.63507849 31.3871778 5.09047225 34.98666987 0 37 C-7.24106165 37.84716854 -14.45548619 38.22108363 -20.4453125 33.59375 C-25.19077537 28.72905439 -26.25465394 24.10668264 -26.5 17.375 C-26.3238817 12.12181635 -25.7279856 8.92949833 -22 5 C-15.19632815 -0.99371091 -8.72592494 -0.79244726 0 0 Z M-20.3125 8.5 C-20.869375 9.325 -21.42625 10.15 -22 11 C-22.61875 11.8971875 -22.61875 11.8971875 -23.25 12.8125 C-24.67510088 16.96904422 -24.94024757 20.92222076 -23.125 24.93359375 C-20.3069766 29.24405718 -16.91701782 32.33804798 -12 34 C-7.33733077 34.80191297 -3.4058411 34.52554833 0.8125 32.3125 C4.88796405 29.35579079 7.40028155 26.79915534 9 22 C9.81402907 16.77578811 9.47451317 13.00316352 6.375 8.625 C2.4612866 4.03461652 -0.88785057 2.23468327 -6.9375 1.5625 C-12.62200175 1.80161862 -16.46108746 4.33631077 -20.3125 8.5 Z " fill="#EDEEF4" transform="translate(257,116)"/>
<path d="M0 0 C4.20956737 0.43803258 7.04651772 2.02882305 10.5625 4.3125 C11.49191406 4.90675781 12.42132813 5.50101563 13.37890625 6.11328125 C15.91466243 7.93857221 18.05901703 9.54648363 20 12 C19.60770256 15.09789191 18.51997287 16.90807716 16.49609375 19.234375 C15.75649414 20.09482422 15.75649414 20.09482422 15.00195312 20.97265625 C14.48568359 21.55917969 13.96941406 22.14570313 13.4375 22.75 C12.91736328 23.35199219 12.39722656 23.95398438 11.86132812 24.57421875 C10.58043726 26.05488159 9.29103688 27.52817542 8 29 C7.01 28.67 6.02 28.34 5 28 C3.97673876 25.54831339 3.14193615 23.21791589 2.375 20.6875 C2.1584375 20.01009766 1.941875 19.33269531 1.71875 18.63476562 C-0.26565006 12.36920618 -1.21468532 7.54790212 -1 1 C-0.67 0.67 -0.34 0.34 0 0 Z " fill="#F7F8FA" transform="translate(152,170)"/>
<path d="M0 0 C1.9375 1 1.9375 1 3 3 C3.55218463 8.61387712 3.12509183 12.13874605 0 17 C-3.82158251 19.54772167 -6.52524523 19.56866675 -11 19 C-13 18 -13 18 -14 16 C-14.55932526 11.12587992 -14.52284183 8.97356754 -12.1875 4.625 C-8.38475509 0.06170611 -5.80668231 -0.51845378 0 0 Z " fill="#080961" transform="translate(170,218)"/>
<path d="M0 0 C8.02829262 -0.42838716 13.12514018 0.3224518 19.375 5.6875 C22.91390539 9.37716593 25.18087379 13.6136624 27.5 18.125 C28.04406494 19.16466919 28.04406494 19.16466919 28.59912109 20.2253418 C30.12651116 23.34648129 31.04776965 25.49178403 30.71875 28.9921875 C30.4815625 29.65476563 30.244375 30.31734375 30 31 C26.45917923 27.84302927 24.4193273 24.33385202 22.25 20.1875 C18.02388734 12.51708075 13.69650759 6.96861948 5.0625 4.25 C4.31097656 4.06953125 3.55945313 3.8890625 2.78515625 3.703125 C2.19605469 3.47109375 1.60695312 3.2390625 1 3 C0.67 2.01 0.34 1.02 0 0 Z " fill="#0E0F65" transform="translate(251,194)"/>
<path d="M0 0 C5 1 5 1 6.7890625 2.71875 C8.26119292 5.49205376 8.40079052 7.37075024 8.375 10.5 C8.38273438 11.4384375 8.39046875 12.376875 8.3984375 13.34375 C7.94552484 16.36316774 7.00855276 17.74702018 5 20 C3.35 19.67 1.7 19.34 0 19 C0 12.73 0 6.46 0 0 Z " fill="#0A0B62" transform="translate(182,262)"/>
<path d="M0 0 C0.99 0.33 1.98 0.66 3 1 C3.02691685 3.45840605 3.04679802 5.91651882 3.0625 8.375 C3.07087891 9.07367188 3.07925781 9.77234375 3.08789062 10.4921875 C3.11328125 15.7734375 3.11328125 15.7734375 2 18 C0.125 17.75 0.125 17.75 -2 17 C-4.58175137 12.89101542 -4.74433168 8.71698567 -4 4 C-2 1.4375 -2 1.4375 0 0 Z " fill="#0F1065" transform="translate(154,259)"/>
<path d="M0 0 C1.18851563 0.00902344 2.37703125 0.01804687 3.6015625 0.02734375 C4.51679688 0.03894531 5.43203125 0.05054687 6.375 0.0625 C6.375 0.7225 6.375 1.3825 6.375 2.0625 C5.57835937 2.14886719 4.78171875 2.23523438 3.9609375 2.32421875 C-2.77996788 3.21808577 -7.04870129 3.89949633 -11.625 9.0625 C-13.84708383 12.51056111 -14.75719863 15.35885387 -15.1875 19.375 C-15.331875 20.591875 -15.47625 21.80875 -15.625 23.0625 C-16.285 23.3925 -16.945 23.7225 -17.625 24.0625 C-18.249 12.37983333 -18.249 12.37983333 -15.9375 7.5 C-10.67254991 1.95045801 -7.61248101 -0.07463217 0 0 Z " fill="#F2F2F6" transform="translate(248.625,115.9375)"/>
<path d="M0 0 C5.54798987 1.54827624 9.01775949 3.74434701 12.8125 8.0625 C14.65384761 12.6174125 14.22937358 17.14917348 14 22 C11 20 11 20 10.41015625 18.01171875 C10.23806641 16.86123047 10.23806641 16.86123047 10.0625 15.6875 C9.23362499 11.48921439 8.1883836 9.01125118 5 6 C1.88337092 4.19020859 1.88337092 4.19020859 -1 3 C-0.67 2.01 -0.34 1.02 0 0 Z " fill="#DFDFEB" transform="translate(255,116)"/>
<path d="M0 0 C3.00527647 3.00527647 2 5.88870455 2 10 C4.6855594 12.6855594 7.37621328 13.06049974 11 14 C11 14.33 11 14.66 11 15 C6.38 15.66 1.76 16.32 -3 17 C-3.34548714 10.66606918 -2.29342747 5.89738492 0 0 Z " fill="#E1E1EB" transform="translate(155,224)"/>
</svg>
